<svg width="24" height="25" viewBox="0 0 24 25" fill="none" xmlns="http://www.w3.org/2000/svg">
<g id="Iconly/Two-tone/Star">
<g id="Star">
<path id="Star_2" fill-rule="evenodd" clip-rule="evenodd" d="M12.7514 3.55696L15.1904 8.47096C15.3114 8.71896 15.5464 8.89096 15.8194 8.93196L21.2774 9.72296C21.4984 9.75196 21.6984 9.86896 21.8334 10.047C22.0874 10.378 22.0494 10.85 21.7444 11.136L17.7904 14.976C17.5904 15.163 17.5004 15.441 17.5524 15.709L18.5054 21.122C18.5714 21.572 18.2664 21.99 17.8194 22.064C17.6334 22.093 17.4434 22.063 17.2764 21.979L12.4084 19.428C12.1644 19.295 11.8704 19.295 11.6274 19.428L6.72738 21.997C6.31838 22.203 5.82238 22.048 5.60038 21.65C5.51538 21.489 5.48438 21.303 5.51438 21.122L6.46738 15.709C6.51338 15.441 6.42438 15.166 6.22938 14.976L2.24438 11.135C1.91938 10.811 1.91838 10.285 2.24238 9.95896C2.24338 9.95896 2.24338 9.95796 2.24438 9.95696C2.37738 9.83596 2.54238 9.75396 2.72038 9.72296L8.17838 8.93196C8.44938 8.88796 8.68438 8.71596 8.80738 8.47096L11.2464 3.55696C11.3434 3.35696 11.5174 3.20396 11.7284 3.13396C11.9394 3.06296 12.1704 3.07896 12.3704 3.17996C12.5344 3.26196 12.6674 3.39396 12.7514 3.55696Z" fill="#FFB803" stroke="#FFB803" stroke-width="1.5" stroke-linecap="round" stroke-linejoin="round"/>
</g>
</g>
</svg>
